<svg width="118" height="102" viewBox="0 0 118 102" fill="none" xmlns="http://www.w3.org/2000/svg">
<style>
    path {
        fill: black;
    }

    @media (prefers-color-scheme: dark) {
        path {
            fill: white;
        }
    }
</style>
<path d="M98.4 101.583H19.475C8.7125 101.583 0 94.075 0 84.8V16.7833C0 7.50834 8.7125 0 19.475 0H97.8875C108.65 0 117.362 7.50834 117.362 16.7833V84.3583C117.875 94.075 109.163 101.583 98.4 101.583ZM19.475 4.41667C11.275 4.41667 5.125 10.1583 5.125 16.7833V84.3583C5.125 91.425 11.7875 96.725 19.475 96.725H97.8875C106.088 96.725 112.237 90.9833 112.237 84.3583V16.7833C112.237 9.71667 105.575 4.41667 97.8875 4.41667H19.475Z" fill="#1E3851"/>
<path d="M37.925 76.85C36.3875 76.85 35.3625 75.9667 35.3625 74.6417V26.9417C35.3625 26.0583 36.3875 25.175 37.4125 24.7333C38.4375 24.2917 39.4625 24.7333 40.4875 25.6167L61.5 56.0917C62.0125 56.975 62.0125 58.3 60.475 59.1833C59.45 59.625 57.9125 59.625 56.8875 58.3L40.4875 34.8917V74.2C40.4875 75.9667 38.95 76.85 37.925 76.85Z" fill="#1E3851"/>
<path d="M45.6125 76.85H30.2375C28.7 76.85 27.675 75.9667 27.675 74.6417C27.675 73.3167 28.7 72.4333 30.2375 72.4333H45.6125C47.15 72.4333 48.175 73.3167 48.175 74.6417C48.175 75.9667 47.15 76.85 45.6125 76.85Z" fill="#1E3851"/>
<path d="M37.925 29.15H30.2375C28.7 29.15 27.675 28.2667 27.675 26.9417C27.675 25.6167 28.7 24.7333 30.2375 24.7333H37.925C39.4625 24.7333 40.4875 25.6167 40.4875 26.9417C40.4875 28.2667 38.95 29.15 37.925 29.15Z" fill="#1E3851"/>
<path d="M79.95 76.85C78.4125 76.85 77.3875 75.9667 77.3875 74.6417V34.8917L60.9875 58.3C60.475 59.1833 58.9375 59.625 57.4 59.1833C56.375 58.7417 55.8625 57.4167 56.375 56.0917L77.3875 25.6167C77.9 24.7333 78.925 24.2917 80.4625 24.7333C81.4875 25.175 82.5125 26.0583 82.5125 26.9417V74.6417C82.5125 75.9667 81.4875 76.85 79.95 76.85Z" fill="#1E3851"/>
<path d="M87.6375 76.85H72.2625C70.725 76.85 69.7 75.9667 69.7 74.6417C69.7 73.3167 70.725 72.4333 72.2625 72.4333H87.6375C89.175 72.4333 90.2 73.3167 90.2 74.6417C90.2 75.9667 89.175 76.85 87.6375 76.85Z" fill="#1E3851"/>
<path d="M87.6375 29.15H79.95C78.4125 29.15 77.3875 28.2667 77.3875 26.9417C77.3875 25.6167 78.4125 24.7333 79.95 24.7333H87.6375C89.175 24.7333 90.2 25.6167 90.2 26.9417C90.2 28.2667 89.175 29.15 87.6375 29.15Z" fill="#1E3851"/>
</svg>
